<?xml version="1.0" encoding="utf-8"?>
<!-- Generator: Adobe Illustrator 25.2.3, SVG Export Plug-In . SVG Version: 6.00 Build 0)  -->
<svg version="1.1" id="Слой_1" xmlns="http://www.w3.org/2000/svg" xmlns:xlink="http://www.w3.org/1999/xlink" x="0px" y="0px"
	 viewBox="0 0 1000 1000" style="enable-background:new 0 0 1000 1000;" xml:space="preserve">
<style type="text/css">
	.st0{display:none;clip-path:url(#SVGID_2_);fill:#ED6A8F;stroke:#000000;stroke-miterlimit:10;}
	.st1{clip-path:url(#SVGID_2_);fill:#282828;stroke:#353535;stroke-miterlimit:10;}
	.st2{opacity:0.2;clip-path:url(#SVGID_2_);}
	.st3{fill:#040506;stroke:#000000;stroke-miterlimit:10;}
	.st4{clip-path:url(#SVGID_2_);fill:#E9405F;stroke:#000000;stroke-miterlimit:10;}
</style>
<g>
	<defs>
		<rect id="SVGID_1_" x="-343.85" y="-380.32" width="1415.49" height="1415.49"/>
	</defs>
	<clipPath id="SVGID_2_">
		<use xlink:href="#SVGID_1_"  style="overflow:visible;"/>
	</clipPath>
	<rect x="-343.85" y="-380.32" class="st0" width="1415.49" height="1415.49"/>
	<circle class="st1" cx="371.38" cy="379.72" r="331.8"/>
	<g class="st2">
		<circle class="st3" cx="371.38" cy="379.72" r="331.8"/>
		<circle class="st3" cx="372.28" cy="380.65" r="331.8"/>
		<circle class="st3" cx="373.18" cy="381.58" r="331.8"/>
		<circle class="st3" cx="374.08" cy="382.51" r="331.8"/>
		<circle class="st3" cx="374.98" cy="383.45" r="331.8"/>
		<circle class="st3" cx="375.89" cy="384.38" r="331.8"/>
		<circle class="st3" cx="376.79" cy="385.31" r="331.8"/>
		<circle class="st3" cx="377.69" cy="386.24" r="331.8"/>
		<circle class="st3" cx="378.59" cy="387.17" r="331.8"/>
		<circle class="st3" cx="379.49" cy="388.11" r="331.8"/>
		<circle class="st3" cx="380.39" cy="389.04" r="331.8"/>
		<circle class="st3" cx="381.29" cy="389.97" r="331.8"/>
		<circle class="st3" cx="382.19" cy="390.9" r="331.8"/>
		<circle class="st3" cx="383.09" cy="391.84" r="331.8"/>
		<circle class="st3" cx="383.99" cy="392.77" r="331.8"/>
		<circle class="st3" cx="384.89" cy="393.7" r="331.8"/>
		<circle class="st3" cx="385.79" cy="394.63" r="331.8"/>
		<circle class="st3" cx="386.69" cy="395.56" r="331.8"/>
		<circle class="st3" cx="387.59" cy="396.5" r="331.8"/>
		<circle class="st3" cx="388.49" cy="397.43" r="331.8"/>
		<circle class="st3" cx="389.39" cy="398.36" r="331.8"/>
		<circle class="st3" cx="390.29" cy="399.29" r="331.8"/>
		<circle class="st3" cx="391.19" cy="400.23" r="331.8"/>
		<circle class="st3" cx="392.09" cy="401.16" r="331.8"/>
		<circle class="st3" cx="392.99" cy="402.09" r="331.8"/>
		<circle class="st3" cx="393.9" cy="403.02" r="331.8"/>
		<circle class="st3" cx="394.8" cy="403.95" r="331.8"/>
		<circle class="st3" cx="395.7" cy="404.89" r="331.8"/>
		<circle class="st3" cx="396.6" cy="405.82" r="331.8"/>
		<circle class="st3" cx="397.5" cy="406.75" r="331.8"/>
		<circle class="st3" cx="398.4" cy="407.68" r="331.8"/>
		<circle class="st3" cx="399.3" cy="408.61" r="331.8"/>
		<circle class="st3" cx="400.2" cy="409.55" r="331.8"/>
		<circle class="st3" cx="401.1" cy="410.48" r="331.8"/>
		<circle class="st3" cx="402" cy="411.41" r="331.8"/>
		<circle class="st3" cx="402.9" cy="412.34" r="331.8"/>
		<circle class="st3" cx="403.8" cy="413.28" r="331.8"/>
		<circle class="st3" cx="404.7" cy="414.21" r="331.8"/>
		<circle class="st3" cx="405.6" cy="415.14" r="331.8"/>
		<circle class="st3" cx="406.5" cy="416.07" r="331.8"/>
		<circle class="st3" cx="407.4" cy="417" r="331.8"/>
		<circle class="st3" cx="408.3" cy="417.94" r="331.8"/>
		<circle class="st3" cx="409.2" cy="418.87" r="331.8"/>
		<circle class="st3" cx="410.1" cy="419.8" r="331.8"/>
		<circle class="st3" cx="411" cy="420.73" r="331.8"/>
		<circle class="st3" cx="411.9" cy="421.67" r="331.8"/>
		<circle class="st3" cx="412.81" cy="422.6" r="331.8"/>
		<circle class="st3" cx="413.71" cy="423.53" r="331.8"/>
		<circle class="st3" cx="414.61" cy="424.46" r="331.8"/>
		<circle class="st3" cx="415.51" cy="425.39" r="331.8"/>
		<circle class="st3" cx="416.41" cy="426.33" r="331.8"/>
		<circle class="st3" cx="417.31" cy="427.26" r="331.8"/>
		<circle class="st3" cx="418.21" cy="428.19" r="331.8"/>
		<circle class="st3" cx="419.11" cy="429.12" r="331.8"/>
		<circle class="st3" cx="420.01" cy="430.06" r="331.8"/>
		<circle class="st3" cx="420.91" cy="430.99" r="331.8"/>
		<circle class="st3" cx="421.81" cy="431.92" r="331.8"/>
		<circle class="st3" cx="422.71" cy="432.85" r="331.8"/>
		<circle class="st3" cx="423.61" cy="433.78" r="331.8"/>
		<circle class="st3" cx="424.51" cy="434.72" r="331.8"/>
		<circle class="st3" cx="425.41" cy="435.65" r="331.8"/>
		<circle class="st3" cx="426.31" cy="436.58" r="331.8"/>
		<circle class="st3" cx="427.21" cy="437.51" r="331.8"/>
		<circle class="st3" cx="428.11" cy="438.45" r="331.8"/>
		<circle class="st3" cx="429.01" cy="439.38" r="331.8"/>
		<circle class="st3" cx="429.91" cy="440.31" r="331.8"/>
		<circle class="st3" cx="430.82" cy="441.24" r="331.8"/>
		<circle class="st3" cx="431.72" cy="442.17" r="331.8"/>
		<circle class="st3" cx="432.62" cy="443.11" r="331.8"/>
		<circle class="st3" cx="433.52" cy="444.04" r="331.8"/>
		<circle class="st3" cx="434.42" cy="444.97" r="331.8"/>
		<circle class="st3" cx="435.32" cy="445.9" r="331.8"/>
		<circle class="st3" cx="436.22" cy="446.84" r="331.8"/>
		<circle class="st3" cx="437.12" cy="447.77" r="331.8"/>
		<circle class="st3" cx="438.02" cy="448.7" r="331.8"/>
		<circle class="st3" cx="438.92" cy="449.63" r="331.8"/>
		<circle class="st3" cx="439.82" cy="450.56" r="331.8"/>
		<circle class="st3" cx="440.72" cy="451.5" r="331.8"/>
		<circle class="st3" cx="441.62" cy="452.43" r="331.8"/>
		<circle class="st3" cx="442.52" cy="453.36" r="331.8"/>
		<circle class="st3" cx="443.42" cy="454.29" r="331.8"/>
		<circle class="st3" cx="444.32" cy="455.23" r="331.8"/>
		<circle class="st3" cx="445.22" cy="456.16" r="331.8"/>
		<circle class="st3" cx="446.12" cy="457.09" r="331.8"/>
		<circle class="st3" cx="447.02" cy="458.02" r="331.8"/>
		<circle class="st3" cx="447.92" cy="458.95" r="331.8"/>
		<circle class="st3" cx="448.83" cy="459.89" r="331.8"/>
		<circle class="st3" cx="449.73" cy="460.82" r="331.8"/>
		<circle class="st3" cx="450.63" cy="461.75" r="331.8"/>
		<circle class="st3" cx="451.53" cy="462.68" r="331.8"/>
		<circle class="st3" cx="452.43" cy="463.61" r="331.8"/>
		<circle class="st3" cx="453.33" cy="464.55" r="331.8"/>
		<circle class="st3" cx="454.23" cy="465.48" r="331.8"/>
		<circle class="st3" cx="455.13" cy="466.41" r="331.8"/>
		<circle class="st3" cx="456.03" cy="467.34" r="331.8"/>
		<circle class="st3" cx="456.93" cy="468.28" r="331.8"/>
		<circle class="st3" cx="457.83" cy="469.21" r="331.8"/>
		<circle class="st3" cx="458.73" cy="470.14" r="331.8"/>
		<circle class="st3" cx="459.63" cy="471.07" r="331.8"/>
		<circle class="st3" cx="460.53" cy="472" r="331.8"/>
		<circle class="st3" cx="461.43" cy="472.94" r="331.8"/>
		<circle class="st3" cx="462.33" cy="473.87" r="331.8"/>
		<circle class="st3" cx="463.23" cy="474.8" r="331.8"/>
		<circle class="st3" cx="464.13" cy="475.73" r="331.8"/>
		<circle class="st3" cx="465.03" cy="476.67" r="331.8"/>
		<circle class="st3" cx="465.93" cy="477.6" r="331.8"/>
		<circle class="st3" cx="466.83" cy="478.53" r="331.8"/>
		<circle class="st3" cx="467.74" cy="479.46" r="331.8"/>
		<circle class="st3" cx="468.64" cy="480.39" r="331.8"/>
		<circle class="st3" cx="469.54" cy="481.33" r="331.8"/>
		<circle class="st3" cx="470.44" cy="482.26" r="331.8"/>
		<circle class="st3" cx="471.34" cy="483.19" r="331.8"/>
		<circle class="st3" cx="472.24" cy="484.12" r="331.8"/>
		<circle class="st3" cx="473.14" cy="485.06" r="331.8"/>
		<circle class="st3" cx="474.04" cy="485.99" r="331.8"/>
		<circle class="st3" cx="474.94" cy="486.92" r="331.8"/>
		<circle class="st3" cx="475.84" cy="487.85" r="331.8"/>
		<circle class="st3" cx="476.74" cy="488.78" r="331.8"/>
		<circle class="st3" cx="477.64" cy="489.72" r="331.8"/>
		<circle class="st3" cx="478.54" cy="490.65" r="331.8"/>
		<circle class="st3" cx="479.44" cy="491.58" r="331.8"/>
		<circle class="st3" cx="480.34" cy="492.51" r="331.8"/>
		<circle class="st3" cx="481.24" cy="493.45" r="331.8"/>
		<circle class="st3" cx="482.14" cy="494.38" r="331.8"/>
		<circle class="st3" cx="483.04" cy="495.31" r="331.8"/>
		<circle class="st3" cx="483.94" cy="496.24" r="331.8"/>
		<circle class="st3" cx="484.84" cy="497.17" r="331.8"/>
		<circle class="st3" cx="485.75" cy="498.11" r="331.8"/>
		<circle class="st3" cx="486.65" cy="499.04" r="331.8"/>
		<circle class="st3" cx="487.55" cy="499.97" r="331.8"/>
		<circle class="st3" cx="488.45" cy="500.9" r="331.8"/>
		<circle class="st3" cx="489.35" cy="501.84" r="331.8"/>
		<circle class="st3" cx="490.25" cy="502.77" r="331.8"/>
		<circle class="st3" cx="491.15" cy="503.7" r="331.8"/>
		<circle class="st3" cx="492.05" cy="504.63" r="331.8"/>
		<circle class="st3" cx="492.95" cy="505.56" r="331.8"/>
		<circle class="st3" cx="493.85" cy="506.5" r="331.8"/>
		<circle class="st3" cx="494.75" cy="507.43" r="331.8"/>
		<circle class="st3" cx="495.65" cy="508.36" r="331.8"/>
		<circle class="st3" cx="496.55" cy="509.29" r="331.8"/>
		<circle class="st3" cx="497.45" cy="510.23" r="331.8"/>
		<circle class="st3" cx="498.35" cy="511.16" r="331.8"/>
		<circle class="st3" cx="499.25" cy="512.09" r="331.8"/>
		<circle class="st3" cx="500.15" cy="513.02" r="331.8"/>
		<circle class="st3" cx="501.05" cy="513.95" r="331.8"/>
		<circle class="st3" cx="501.95" cy="514.89" r="331.8"/>
		<circle class="st3" cx="502.85" cy="515.82" r="331.8"/>
		<circle class="st3" cx="503.75" cy="516.75" r="331.8"/>
		<circle class="st3" cx="504.66" cy="517.68" r="331.8"/>
		<circle class="st3" cx="505.56" cy="518.62" r="331.8"/>
		<circle class="st3" cx="506.46" cy="519.55" r="331.8"/>
		<circle class="st3" cx="507.36" cy="520.48" r="331.8"/>
		<circle class="st3" cx="508.26" cy="521.41" r="331.8"/>
		<circle class="st3" cx="509.16" cy="522.34" r="331.8"/>
		<circle class="st3" cx="510.06" cy="523.28" r="331.8"/>
		<circle class="st3" cx="510.96" cy="524.21" r="331.8"/>
		<circle class="st3" cx="511.86" cy="525.14" r="331.8"/>
		<circle class="st3" cx="512.76" cy="526.07" r="331.8"/>
		<circle class="st3" cx="513.66" cy="527" r="331.8"/>
		<circle class="st3" cx="514.56" cy="527.94" r="331.8"/>
		<circle class="st3" cx="515.46" cy="528.87" r="331.8"/>
		<circle class="st3" cx="516.36" cy="529.8" r="331.8"/>
		<circle class="st3" cx="517.26" cy="530.73" r="331.8"/>
		<circle class="st3" cx="518.16" cy="531.67" r="331.8"/>
		<circle class="st3" cx="519.06" cy="532.6" r="331.8"/>
		<circle class="st3" cx="519.96" cy="533.53" r="331.8"/>
		<circle class="st3" cx="520.86" cy="534.46" r="331.8"/>
		<circle class="st3" cx="521.76" cy="535.39" r="331.8"/>
		<circle class="st3" cx="522.67" cy="536.33" r="331.8"/>
		<circle class="st3" cx="523.57" cy="537.26" r="331.8"/>
		<circle class="st3" cx="524.47" cy="538.19" r="331.8"/>
		<circle class="st3" cx="525.37" cy="539.12" r="331.8"/>
		<circle class="st3" cx="526.27" cy="540.06" r="331.8"/>
		<circle class="st3" cx="527.17" cy="540.99" r="331.8"/>
		<circle class="st3" cx="528.07" cy="541.92" r="331.8"/>
		<circle class="st3" cx="528.97" cy="542.85" r="331.8"/>
		<circle class="st3" cx="529.87" cy="543.78" r="331.8"/>
		<circle class="st3" cx="530.77" cy="544.72" r="331.8"/>
		<circle class="st3" cx="531.67" cy="545.65" r="331.8"/>
		<circle class="st3" cx="532.57" cy="546.58" r="331.8"/>
		<circle class="st3" cx="533.47" cy="547.51" r="331.8"/>
		<circle class="st3" cx="534.37" cy="548.45" r="331.8"/>
		<circle class="st3" cx="535.27" cy="549.38" r="331.8"/>
		<circle class="st3" cx="536.17" cy="550.31" r="331.8"/>
		<circle class="st3" cx="537.07" cy="551.24" r="331.8"/>
		<circle class="st3" cx="537.97" cy="552.17" r="331.8"/>
		<circle class="st3" cx="538.87" cy="553.11" r="331.8"/>
		<circle class="st3" cx="539.77" cy="554.04" r="331.8"/>
		<circle class="st3" cx="540.68" cy="554.97" r="331.8"/>
		<circle class="st3" cx="541.58" cy="555.9" r="331.8"/>
		<circle class="st3" cx="542.48" cy="556.84" r="331.8"/>
		<circle class="st3" cx="543.38" cy="557.77" r="331.8"/>
		<circle class="st3" cx="544.28" cy="558.7" r="331.8"/>
		<circle class="st3" cx="545.18" cy="559.63" r="331.8"/>
		<circle class="st3" cx="546.08" cy="560.56" r="331.8"/>
		<circle class="st3" cx="546.98" cy="561.5" r="331.8"/>
		<circle class="st3" cx="547.88" cy="562.43" r="331.8"/>
		<circle class="st3" cx="548.78" cy="563.36" r="331.8"/>
		<circle class="st3" cx="549.68" cy="564.29" r="331.8"/>
		<circle class="st3" cx="550.58" cy="565.23" r="331.8"/>
		<circle class="st3" cx="551.48" cy="566.16" r="331.8"/>
		<circle class="st3" cx="552.38" cy="567.09" r="331.8"/>
		<circle class="st3" cx="553.28" cy="568.02" r="331.8"/>
		<circle class="st3" cx="554.18" cy="568.95" r="331.8"/>
		<circle class="st3" cx="555.08" cy="569.89" r="331.8"/>
		<circle class="st3" cx="555.98" cy="570.82" r="331.8"/>
		<circle class="st3" cx="556.88" cy="571.75" r="331.8"/>
		<circle class="st3" cx="557.78" cy="572.68" r="331.8"/>
		<circle class="st3" cx="558.68" cy="573.62" r="331.8"/>
		<circle class="st3" cx="559.59" cy="574.55" r="331.8"/>
		<circle class="st3" cx="560.49" cy="575.48" r="331.8"/>
		<circle class="st3" cx="561.39" cy="576.41" r="331.8"/>
		<circle class="st3" cx="562.29" cy="577.34" r="331.8"/>
		<circle class="st3" cx="563.19" cy="578.28" r="331.8"/>
		<circle class="st3" cx="564.09" cy="579.21" r="331.8"/>
		<circle class="st3" cx="564.99" cy="580.14" r="331.8"/>
		<circle class="st3" cx="565.89" cy="581.07" r="331.8"/>
		<circle class="st3" cx="566.79" cy="582" r="331.8"/>
		<circle class="st3" cx="567.69" cy="582.94" r="331.8"/>
		<circle class="st3" cx="568.59" cy="583.87" r="331.8"/>
		<circle class="st3" cx="569.49" cy="584.8" r="331.8"/>
		<circle class="st3" cx="570.39" cy="585.73" r="331.8"/>
		<circle class="st3" cx="571.29" cy="586.67" r="331.8"/>
		<circle class="st3" cx="572.19" cy="587.6" r="331.8"/>
		<circle class="st3" cx="573.09" cy="588.53" r="331.8"/>
		<circle class="st3" cx="573.99" cy="589.46" r="331.8"/>
		<circle class="st3" cx="574.89" cy="590.39" r="331.8"/>
		<circle class="st3" cx="575.79" cy="591.33" r="331.8"/>
		<circle class="st3" cx="576.69" cy="592.26" r="331.8"/>
		<circle class="st3" cx="577.6" cy="593.19" r="331.8"/>
		<circle class="st3" cx="578.5" cy="594.12" r="331.8"/>
		<circle class="st3" cx="579.4" cy="595.06" r="331.8"/>
		<circle class="st3" cx="580.3" cy="595.99" r="331.8"/>
		<circle class="st3" cx="581.2" cy="596.92" r="331.8"/>
		<circle class="st3" cx="582.1" cy="597.85" r="331.8"/>
		<circle class="st3" cx="583" cy="598.78" r="331.8"/>
		<circle class="st3" cx="583.9" cy="599.72" r="331.8"/>
		<circle class="st3" cx="584.8" cy="600.65" r="331.8"/>
		<circle class="st3" cx="585.7" cy="601.58" r="331.8"/>
		<circle class="st3" cx="586.6" cy="602.51" r="331.8"/>
		<circle class="st3" cx="587.5" cy="603.45" r="331.8"/>
		<circle class="st3" cx="588.4" cy="604.38" r="331.8"/>
		<circle class="st3" cx="589.3" cy="605.31" r="331.8"/>
		<circle class="st3" cx="590.2" cy="606.24" r="331.8"/>
		<circle class="st3" cx="591.1" cy="607.17" r="331.8"/>
		<circle class="st3" cx="592" cy="608.11" r="331.8"/>
		<circle class="st3" cx="592.9" cy="609.04" r="331.8"/>
		<circle class="st3" cx="593.8" cy="609.97" r="331.8"/>
		<circle class="st3" cx="594.7" cy="610.9" r="331.8"/>
		<circle class="st3" cx="595.6" cy="611.84" r="331.8"/>
		<circle class="st3" cx="596.51" cy="612.77" r="331.8"/>
		<circle class="st3" cx="597.41" cy="613.7" r="331.8"/>
		<circle class="st3" cx="598.31" cy="614.63" r="331.8"/>
		<circle class="st3" cx="599.21" cy="615.56" r="331.8"/>
		<circle class="st3" cx="600.11" cy="616.5" r="331.8"/>
		<circle class="st3" cx="601.01" cy="617.43" r="331.8"/>
		<circle class="st3" cx="601.91" cy="618.36" r="331.8"/>
		<circle class="st3" cx="602.81" cy="619.29" r="331.8"/>
		<circle class="st3" cx="603.71" cy="620.23" r="331.8"/>
		<circle class="st3" cx="604.61" cy="621.16" r="331.8"/>
		<circle class="st3" cx="605.51" cy="622.09" r="331.8"/>
		<circle class="st3" cx="606.41" cy="623.02" r="331.8"/>
		<circle class="st3" cx="607.31" cy="623.95" r="331.8"/>
		<circle class="st3" cx="608.21" cy="624.89" r="331.8"/>
		<circle class="st3" cx="609.11" cy="625.82" r="331.8"/>
		<circle class="st3" cx="610.01" cy="626.75" r="331.8"/>
		<circle class="st3" cx="610.91" cy="627.68" r="331.8"/>
		<circle class="st3" cx="611.81" cy="628.62" r="331.8"/>
		<circle class="st3" cx="612.71" cy="629.55" r="331.8"/>
		<circle class="st3" cx="613.61" cy="630.48" r="331.8"/>
		<circle class="st3" cx="614.52" cy="631.41" r="331.8"/>
		<circle class="st3" cx="615.42" cy="632.34" r="331.8"/>
		<circle class="st3" cx="616.32" cy="633.28" r="331.8"/>
		<circle class="st3" cx="617.22" cy="634.21" r="331.8"/>
		<circle class="st3" cx="618.12" cy="635.14" r="331.8"/>
		<circle class="st3" cx="619.02" cy="636.07" r="331.8"/>
		<circle class="st3" cx="619.92" cy="637.01" r="331.8"/>
		<circle class="st3" cx="620.82" cy="637.94" r="331.8"/>
		<circle class="st3" cx="621.72" cy="638.87" r="331.8"/>
		<circle class="st3" cx="622.62" cy="639.8" r="331.8"/>
		<circle class="st3" cx="623.52" cy="640.73" r="331.8"/>
		<circle class="st3" cx="624.42" cy="641.67" r="331.8"/>
		<circle class="st3" cx="625.32" cy="642.6" r="331.8"/>
		<circle class="st3" cx="626.22" cy="643.53" r="331.8"/>
		<circle class="st3" cx="627.12" cy="644.46" r="331.8"/>
		<circle class="st3" cx="628.02" cy="645.39" r="331.8"/>
		<circle class="st3" cx="628.92" cy="646.33" r="331.8"/>
		<circle class="st3" cx="629.82" cy="647.26" r="331.8"/>
		<circle class="st3" cx="630.72" cy="648.19" r="331.8"/>
		<circle class="st3" cx="631.62" cy="649.12" r="331.8"/>
		<circle class="st3" cx="632.52" cy="650.06" r="331.8"/>
		<circle class="st3" cx="633.43" cy="650.99" r="331.8"/>
		<circle class="st3" cx="634.33" cy="651.92" r="331.8"/>
		<circle class="st3" cx="635.23" cy="652.85" r="331.8"/>
		<circle class="st3" cx="636.13" cy="653.78" r="331.8"/>
		<circle class="st3" cx="637.03" cy="654.72" r="331.8"/>
		<circle class="st3" cx="637.93" cy="655.65" r="331.8"/>
		<circle class="st3" cx="638.83" cy="656.58" r="331.8"/>
		<circle class="st3" cx="639.73" cy="657.51" r="331.8"/>
		<circle class="st3" cx="640.63" cy="658.45" r="331.8"/>
		<circle class="st3" cx="641.53" cy="659.38" r="331.8"/>
		<circle class="st3" cx="642.43" cy="660.31" r="331.8"/>
	</g>
	<path class="st4" d="M593.92,330.09h-95.88c-13.93-39.62-45.27-71.03-84.81-85.02c-14.49-5.13-30.08-7.92-46.33-7.92
		s-31.84,2.79-46.33,7.92c-39.54,13.99-70.88,45.4-84.81,85.02c-5.09,14.46-7.85,30.02-7.85,46.23v0.42
		c0.05,16.23,2.88,31.82,8.03,46.29c4.11,11.56,9.72,22.43,16.57,32.36c16.5,23.87,40.25,42.33,68.07,52.17
		c14.49,5.13,30.08,7.92,46.33,7.92s31.84-2.79,46.33-7.92v96.7c-14.97,3.05-30.46,4.65-46.33,4.65s-31.36-1.6-46.33-4.65
		c-34.23-6.97-65.73-21.51-92.67-41.8c-16.78-12.64-31.79-27.52-44.6-44.18c0.56-0.78,1.13-1.55,1.71-2.31h-3.47
		c-10.69-14.27-19.77-29.81-26.99-46.37c-6.45-14.78-11.41-30.37-14.69-46.57c-3.04-15.01-4.64-30.55-4.64-46.47
		c0-15.92,1.59-31.46,4.64-46.47c6.95-34.33,21.45-65.92,41.67-92.94c13.18-17.6,28.81-33.27,46.36-46.49
		c26.94-20.29,58.43-34.84,92.67-41.8c14.97-3.05,30.46-4.65,46.33-4.65s31.36,1.6,46.33,4.65c34.23,6.97,65.73,21.51,92.67,41.8
		c17.55,13.22,33.17,28.89,46.36,46.49C572.48,264.17,586.98,295.76,593.92,330.09z"/>
	<path class="st4" d="M593.89,515.97c-3.28-16.13-8.23-31.64-14.65-46.37c-7.25-16.63-16.39-32.24-27.14-46.57
		c-13.15-17.52-28.72-33.12-46.2-46.29c-26.94-20.29-58.43-34.84-92.67-41.8c-14.13-2.88-28.73-4.46-43.67-4.63
		c-0.89-0.01-1.77-0.02-2.66-0.02s-1.77,0.01-2.66,0.02c-23.13,1.3-41.75,19.51-43.67,42.47v7.89
		c1.89,22.46,19.74,40.38,42.17,42.37h8.33c-1.34,0.12-2.68,0.18-4.05,0.19c1.07-0.01,2.13-0.02,3.19-0.02
		c14.7,0,29.08,1.37,43.02,4c24.95,4.69,48.48,13.41,69.92,25.43c7.88,4.42,15.48,9.29,22.75,14.58
		c18.13,13.16,34.28,28.88,47.91,46.64c0.55,0.7,1.08,1.41,1.61,2.11c18.7,24.91,32.51,53.72,40.01,84.99
		c2.07-12.47,3.14-25.27,3.14-38.32C598.56,546.65,596.95,531.05,593.89,515.97z M413.23,380.67v-7.89c0.11,1.3,0.17,2.61,0.17,3.94
		C413.39,378.06,413.34,379.37,413.23,380.67z"/>
</g>
</svg>
